<svg xmlns="http://www.w3.org/2000/svg" width="28.055" height="21" viewBox="0 0 28.055 21">
  <g id="address-card-outlined-svgrepo-com" transform="translate(-924.668 -821.646)">
    <g id="Group_54" data-name="Group 54" transform="translate(924.668 821.646)">
      <path id="Path_44" data-name="Path 44" d="M949.825,842.646H927.565a2.9,2.9,0,0,1-2.9-2.9V824.543a2.9,2.9,0,0,1,2.9-2.9h22.26a2.9,2.9,0,0,1,2.9,2.9v15.205A2.9,2.9,0,0,1,949.825,842.646Zm-22.259-19.287a1.185,1.185,0,0,0-1.184,1.184v15.205a1.185,1.185,0,0,0,1.184,1.184h22.26a1.185,1.185,0,0,0,1.184-1.184V824.543a1.185,1.185,0,0,0-1.184-1.184Z" transform="translate(-924.668 -821.646)" fill="#008554"/>
    </g>
    <g id="Group_57" data-name="Group 57" transform="translate(928.712 826.095)">
      <g id="Group_55" data-name="Group 55" transform="translate(0 7.065)">
        <path id="Path_45" data-name="Path 45" d="M960.369,905.535a5.758,5.758,0,0,0-2.466-3.278.622.622,0,0,0-.742.059,3.339,3.339,0,0,1-4.576-.033.621.621,0,0,0-.74-.069,5.761,5.761,0,0,0-2.537,3.32,1.246,1.246,0,0,0,1.2,1.588h8.666a1.245,1.245,0,0,0,1.2-1.588Z" transform="translate(-949.26 -902.124)" fill="#008554"/>
      </g>
      <g id="Group_56" data-name="Group 56" transform="translate(2.543 0)">
        <path id="Path_46" data-name="Path 46" d="M970.906,862.8a3.132,3.132,0,1,1-3.089-3.648A3.4,3.4,0,0,1,970.906,862.8Z" transform="translate(-964.728 -859.154)" fill="#008554"/>
      </g>
    </g>
    <g id="Group_58" data-name="Group 58" transform="translate(938.84 826.898)">
      <path id="Path_47" data-name="Path 47" d="M1043.077,861.385h-7.539a1,1,0,1,1,0-1.995h7.539a1,1,0,1,1,0,1.995Z" transform="translate(-1034.54 -859.39)" fill="#008554"/>
    </g>
    <g id="Group_59" data-name="Group 59" transform="translate(938.84 831.115)">
      <path id="Path_48" data-name="Path 48" d="M1043.077,891.685h-7.539a1,1,0,0,1,0-1.995h7.539a1,1,0,0,1,0,1.995Z" transform="translate(-1034.54 -889.69)" fill="#008554"/>
    </g>
    <g id="Group_60" data-name="Group 60" transform="translate(938.84 835.331)">
      <path id="Path_49" data-name="Path 49" d="M1043.077,921.988h-7.539a1,1,0,1,1,0-1.995h7.539a1,1,0,1,1,0,1.995Z" transform="translate(-1034.54 -919.993)" fill="#008554"/>
    </g>
  </g>
</svg>
