<svg xmlns="http://www.w3.org/2000/svg" width="29.81" height="27.566" viewBox="0 0 29.81 27.566">
  <g id="_2279017-200_1_" data-name="2279017-200 (1)" transform="translate(-10.125 182.871)">
    <path id="Path_595" data-name="Path 595" d="M93.2-182.613a6.925,6.925,0,0,0-2.962,2.32c-.453.717-.509.755-1.7.849A8.258,8.258,0,0,0,81-171.2a8.417,8.417,0,0,0,5.282,7.753,6.554,6.554,0,0,0,3.018.434,5.327,5.327,0,0,0,3.433-.679,8.2,8.2,0,0,0,4.81-8.205,8.333,8.333,0,0,0-4.4-6.621l-1.113-.566.622-.566a3.7,3.7,0,0,1,3.056-.943,3.492,3.492,0,0,1,3.131,2.094,3.742,3.742,0,0,1,.075,3.32c-.7,1.528-.4,2.358.792,2.245.547-.057.679-.189,1.188-1.188a4.535,4.535,0,0,0,.566-2.641,4.922,4.922,0,0,0-.49-2.547,6.829,6.829,0,0,0-2.962-3.056A8.069,8.069,0,0,0,93.2-182.613Zm-1.415,5.9a6.982,6.982,0,0,1,3,2.962,4.774,4.774,0,0,1,.453,2.547,5.229,5.229,0,0,1-1.754,4.3,5.086,5.086,0,0,1-4.188,1.641,4.729,4.729,0,0,1-2.679-.528,6.054,6.054,0,0,1,.66-11.11A6.854,6.854,0,0,1,91.79-176.709Z" transform="translate(-61.532)" fill="#008554"/>
    <path id="Path_596" data-name="Path 596" d="M111.343-149.638a.933.933,0,0,0-.415.6c0,.17-.264.472-.566.641a2.734,2.734,0,0,0-.943,3.7,3.654,3.654,0,0,0,2.4,1.358c.6,0,1,.189,1,.49,0,.415-.66.641-1.867.641-1.283,0-1.717.283-1.717,1.113,0,.622.245.868,1,1.056a2.518,2.518,0,0,1,.981.585,1.511,1.511,0,0,0,.849.453c.415,0,1.132-.622,1.132-1,0-.113.264-.377.566-.547a2.734,2.734,0,0,0,.943-3.7,3.654,3.654,0,0,0-2.4-1.358c-.641,0-1-.208-1-.566,0-.453.358-.566,1.962-.566,1.566,0,2.056-.245,2.056-1.037A1.334,1.334,0,0,0,113.909-149a1.4,1.4,0,0,1-1.019-.472A1,1,0,0,0,111.343-149.638Z" transform="translate(-83.992 -26.867)" fill="#008554"/>
    <path id="Path_597" data-name="Path 597" d="M19.061-82.676a7.075,7.075,0,0,0-3.659,3.32l-.4.773H12.931c-1.83,0-2.113.038-2.452.377a.982.982,0,0,0,0,1.509c.34.34.622.377,3.037.377a15.691,15.691,0,0,0,3-.189,1.719,1.719,0,0,0,.566-.943,6.279,6.279,0,0,1,1.905-2.679A3.049,3.049,0,0,1,20.25-80.6a3.29,3.29,0,0,1,3.15,1.094l.981.924H26.3c1.849,0,1.943.019,2.433.509l.509.528-2.754.094c-2.377.075-2.829.151-3.169.453a.964.964,0,0,0-.057,1.49c.3.283.868.321,3.942.321,4.188,0,4.206,0,4.206-1.717-.019-2.6-1.641-3.942-4.791-3.942-1.17,0-1.339-.057-1.962-.585a5.513,5.513,0,0,0-3.81-1.471A6.81,6.81,0,0,0,19.061-82.676Z" transform="translate(0 -84.323)" fill="#008554"/>
    <path id="Path_598" data-name="Path 598" d="M39.345-77.982a7.464,7.464,0,0,0-2.438,1.4,1.074,1.074,0,0,0,.425,1.528c.393.189.7.113,2.536-.736,3.812-1.717,3.518-1.17-1.522,2.962l-4.009,3.263H26.681c-7.641,0-8.148.038-8.492.641a1.215,1.215,0,0,0,.164,1.3c.278.283,1.1.321,8.475.321l8.164-.019,4.172-3.4c4.925-4,5.236-4.339,5.236-5.584,0-1.622-.916-2.716-2.242-2.7A13.113,13.113,0,0,0,39.345-77.982Z" transform="translate(-6.447 -88)" fill="#008554"/>
  </g>
</svg>
