<svg xmlns="http://www.w3.org/2000/svg" width="28" height="23" viewBox="0 0 28 23">
  <g id="layer1" transform="translate(-110 -441.014)">
    <path id="path453681" d="M133.889,456.02a1,1,0,0,0-.6.287L131.5,458.1l-.793-.793a1,1,0,0,0-1.414,1.414l1.5,1.5a1,1,0,0,0,1.414,0l2.5-2.5a1,1,0,0,0-.818-1.7Z" fill="#008554" fill-rule="evenodd"/>
    <path id="path453659" d="M122,453.014a1,1,0,0,0,0,2h3a1,1,0,0,0,0-2Z" fill="#008554" fill-rule="evenodd"/>
    <path id="path453641" d="M115,450.014a1,1,0,0,0-1,1v4a1,1,0,0,0,1,1h4a1,1,0,0,0,1-1v-4a1,1,0,0,0-1-1Zm1,2h2v2h-2Z" fill="#008554" fill-rule="evenodd"/>
    <path id="path453617" d="M112,441.014a2.018,2.018,0,0,0-2,2v15a2.018,2.018,0,0,0,2,2h14.346A6,6,0,1,0,136,453.551V443.014a2.018,2.018,0,0,0-2-2Zm0,2h22v2H112Zm0,4h22v5.346c-.073-.026-.147-.051-.221-.074a5.954,5.954,0,0,0-1.779-.271,6.016,6.016,0,0,0-5.992,5.691c0,.1-.008.205-.008.309H112Zm10,3a1,1,0,0,0,0,2h5a1,1,0,0,0,0-2Zm10,4a4,4,0,1,1-3.893,4.93,1,1,0,0,0-.053-.26c0-.02-.007-.039-.01-.059-.01-.066-.017-.134-.023-.2a4.085,4.085,0,0,1-.021-.41q0-.1.006-.207c.007-.137.019-.271.039-.4.01-.066.022-.132.035-.2a3.985,3.985,0,0,1,3.92-3.191Z" fill="#008554" fill-rule="evenodd"/>
  </g>
</svg>
