<svg xmlns="http://www.w3.org/2000/svg" width="26" height="26" viewBox="0 0 26 26">
  <g id="education-scroll-graduation-script-degree-svgrepo-com" transform="translate(-4 -3)">
    <path id="Path_8032" data-name="Path 8032" d="M25,7c0-1.7.9-3,2-3s2,1.3,2,3H25V25" fill="none" stroke="#007e4c" stroke-linecap="round" stroke-linejoin="round" stroke-miterlimit="10" stroke-width="2"/>
    <path id="Path_8033" data-name="Path 8033" d="M11,4C9.9,4,9,5.3,9,7" fill="none" stroke="#007e4c" stroke-linecap="round" stroke-linejoin="round" stroke-miterlimit="10" stroke-width="2"/>
    <line id="Line_13" data-name="Line 13" x1="16" transform="translate(11 4)" fill="none" stroke="#007e4c" stroke-linecap="round" stroke-linejoin="round" stroke-miterlimit="10" stroke-width="2"/>
    <path id="Path_8034" data-name="Path 8034" d="M23,22c-1.1,0-2,1.3-2,3s.9,3,2,3,2-1.3,2-3" fill="none" stroke="#007e4c" stroke-linecap="round" stroke-linejoin="round" stroke-miterlimit="10" stroke-width="2"/>
    <path id="Path_8035" data-name="Path 8035" d="M7,22c-1.1,0-2,1.3-2,3s.9,3,2,3" fill="none" stroke="#007e4c" stroke-linecap="round" stroke-linejoin="round" stroke-miterlimit="10" stroke-width="2"/>
    <line id="Line_14" data-name="Line 14" x2="16" transform="translate(7 28)" fill="none" stroke="#007e4c" stroke-linecap="round" stroke-linejoin="round" stroke-miterlimit="10" stroke-width="2"/>
    <line id="Line_15" data-name="Line 15" x1="16" transform="translate(7 22)" fill="none" stroke="#007e4c" stroke-linecap="round" stroke-linejoin="round" stroke-miterlimit="10" stroke-width="2"/>
    <line id="Line_16" data-name="Line 16" y1="15" transform="translate(9 7)" fill="none" stroke="#007e4c" stroke-linecap="round" stroke-linejoin="round" stroke-miterlimit="10" stroke-width="2"/>
    <line id="Line_17" data-name="Line 17" x2="6" transform="translate(12 11)" fill="none" stroke="#007e4c" stroke-linecap="round" stroke-linejoin="round" stroke-miterlimit="10" stroke-width="2"/>
    <line id="Line_18" data-name="Line 18" x2="3" transform="translate(12 14)" fill="none" stroke="#007e4c" stroke-linecap="round" stroke-linejoin="round" stroke-miterlimit="10" stroke-width="2"/>
  </g>
</svg>
