<svg xmlns="http://www.w3.org/2000/svg" width="26" height="25" viewBox="0 0 26 25">
  <g id="student-duotone-svgrepo-com" transform="translate(-24 -24)">
    <path id="Path_8026" data-name="Path 8026" d="M49.316,28.051l-12-4a1,1,0,0,0-.632,0L24.7,28.045h0l-.018.006-.01,0a.989.989,0,0,0-.126.054l-.014.007a1,1,0,0,0-.116.073l-.024.018a1.011,1.011,0,0,0-.1.089l-.008.009a1,1,0,0,0-.083.1l-.016.021a1,1,0,0,0-.071.116l-.009.019a.993.993,0,0,0-.051.122l0,.012a.994.994,0,0,0-.033.136c0,.01,0,.019,0,.029A1,1,0,0,0,24,29V39a1,1,0,1,0,2,0V30.388l4.2,1.4a8,8,0,0,0,2.554,10.987,11.985,11.985,0,0,0-5.811,4.68,1,1,0,1,0,1.675,1.092,10,10,0,0,1,16.767,0,1,1,0,0,0,1.675-1.092,11.985,11.985,0,0,0-5.81-4.68A8,8,0,0,0,43.8,31.787l5.514-1.838a1,1,0,0,0,0-1.9ZM43,36a6,6,0,1,1-10.831-3.556l4.515,1.505a1,1,0,0,0,.632,0l4.515-1.505A5.982,5.982,0,0,1,43,36Zm-1.162-5.667-.007,0L37,31.946l-4.83-1.61-.008,0-4-1.333L37,26.054,45.838,29Z" transform="translate(0 0)" fill="#007e4c"/>
  </g>
</svg>
