<svg xmlns="http://www.w3.org/2000/svg" width="19.067" height="22" viewBox="0 0 19.067 22">
  <path id="contract-svgrepo-com" d="M6.133,10.267H5.4v1.467h.733Zm8.8,1.467h.733V10.267h-.733Zm-8.8-5.867H5.4V7.333h.733ZM9.067,7.333H9.8V5.867H9.067Zm5.867-6.6.519-.519L15.237,0h-.3Zm4.4,4.4h.733v-.3l-.215-.215Zm-8.067,11-.519.519Zm-.733.733.328.656.059-.029.053-.04Zm-4.4-5.133h8.8V10.267h-8.8Zm0-4.4H9.067V5.867H6.133Zm11.733,13.2H3.2V22H17.867ZM2.467,19.8V2.2H1V19.8ZM3.2,1.467H14.933V0H3.2ZM18.6,5.133V19.8h1.467V5.133ZM14.415,1.252l4.4,4.4,1.037-1.037-4.4-4.4ZM3.2,20.533a.733.733,0,0,1-.733-.733H1A2.2,2.2,0,0,0,3.2,22ZM17.867,22a2.2,2.2,0,0,0,2.2-2.2H18.6a.733.733,0,0,1-.733.733ZM2.467,2.2A.733.733,0,0,1,3.2,1.467V0A2.2,2.2,0,0,0,1,2.2Zm5.1,14.9A1.783,1.783,0,0,1,8.78,16a1.989,1.989,0,0,1,1.968.654l1.037-1.037A3.446,3.446,0,0,0,8.4,14.582a3.248,3.248,0,0,0-2.229,2.053Zm3.186-.447a1.368,1.368,0,0,1,.115.128l1.158-.9a2.853,2.853,0,0,0-.236-.266Zm.115.128a.471.471,0,0,1,.093.162c0-.021.009.012-.079.092a1.466,1.466,0,0,1-.425.247,2.613,2.613,0,0,1-.578.159,1.244,1.244,0,0,1-.367.014.349.349,0,0,1,.1.054.569.569,0,0,1,.223.429.518.518,0,0,1-.03.2.306.306,0,0,1-.034.068.732.732,0,0,1,.106-.1,5.75,5.75,0,0,1,.987-.588l-.656-1.312a7.088,7.088,0,0,0-1.254.759,2.017,2.017,0,0,0-.381.391,1.035,1.035,0,0,0-.2.642.9.9,0,0,0,.373.687,1.207,1.207,0,0,0,.484.2,2.616,2.616,0,0,0,.87,0,3.529,3.529,0,0,0,1.77-.771,1.622,1.622,0,0,0,.549-1.006,1.68,1.68,0,0,0-.391-1.233Zm.111.673a3.754,3.754,0,0,1,.76-.45l-.582-1.346a5.219,5.219,0,0,0-1.057.623Zm.76-.45a3.048,3.048,0,0,1,2.679.221c.219.1.433.218.65.336s.435.237.647.345a3.266,3.266,0,0,0,1.424.429V16.867a1.965,1.965,0,0,1-.762-.27c-.189-.1-.385-.2-.611-.326s-.463-.248-.718-.37a4.5,4.5,0,0,0-3.892-.243Z" transform="translate(-1)"/>
</svg>
