<svg xmlns="http://www.w3.org/2000/svg" width="16.2" height="18" viewBox="0 0 16.2 18">
  <path id="notes-svgrepo-com_1_" data-name="notes-svgrepo-com (1)" d="M14.7,12.8H7.5a.9.9,0,1,0,0,1.8h7.2a.9.9,0,0,0,0-1.8Zm0-3.6H9.3a.9.9,0,1,0,0,1.8h5.4a.9.9,0,0,0,0-1.8Zm3.6-5.4H15.6V2.9a.9.9,0,1,0-1.8,0v.9H12V2.9a.9.9,0,0,0-1.8,0v.9H8.4V2.9a.9.9,0,1,0-1.8,0v.9H3.9a.9.9,0,0,0-.9.9V17.3A2.7,2.7,0,0,0,5.7,20H16.5a2.7,2.7,0,0,0,2.7-2.7V4.7A.9.9,0,0,0,18.3,3.8Zm-.9,13.5a.9.9,0,0,1-.9.9H5.7a.9.9,0,0,1-.9-.9V5.6H6.6v.9a.9.9,0,1,0,1.8,0V5.6h1.8v.9a.9.9,0,1,0,1.8,0V5.6h1.8v.9a.9.9,0,1,0,1.8,0V5.6h1.8Z" transform="translate(-3 -2)"/>
</svg>
