<svg xmlns="http://www.w3.org/2000/svg" width="36" height="33.139" viewBox="0 0 36 33.139">
  <g id="icons" transform="translate(-10.9 -14.075)">
    <g id="XMLID_394_" transform="translate(11.9 10)">
      <g id="XMLID_375_" transform="translate(0 19.791)">
        <path id="XMLID_379_" d="M11.9,52.658v-2.03a.84.84,0,0,1,.592-.846l4.99-1.692V45.3" transform="translate(-11.9 -35.235)" fill="none" stroke="#fff" stroke-miterlimit="10" stroke-width="2"/>
        <path id="XMLID_378_" d="M29.282,52.658v-2.03a.84.84,0,0,0-.592-.846L23.7,48.091V45.3" transform="translate(-13.72 -35.235)" fill="none" stroke="#fff" stroke-miterlimit="10" stroke-width="2"/>
        <path id="XMLID_377_" d="M24.243,37.121a3.721,3.721,0,1,0-7.443,0l.338,4.483a1.914,1.914,0,0,0,.93,1.438l1.861,1.184h1.184l1.861-1.184A1.717,1.717,0,0,0,23.9,41.6Z" transform="translate(-12.656 -33.4)" fill="none" stroke="#fff" stroke-miterlimit="10" stroke-width="2"/>
        <path id="XMLID_376_" d="M18.5,48.5l1.438,1.607h1.692L22.983,48.5" transform="translate(-12.918 -35.729)" fill="none" stroke="#fff" stroke-miterlimit="10" stroke-width="2"/>
      </g>
      <g id="XMLID_381_" transform="translate(18.438 19.96)">
        <path id="XMLID_386_" d="M33.7,52.689V50.828a.84.84,0,0,1,.592-.846l4.99-1.692V45.5" transform="translate(-33.7 -35.435)" fill="none" stroke="#fff" stroke-miterlimit="10" stroke-width="2"/>
        <path id="XMLID_384_" d="M51.082,52.689V50.828a.84.84,0,0,0-.592-.846L45.5,48.291V45.5" transform="translate(-35.52 -35.435)" fill="none" stroke="#fff" stroke-miterlimit="10" stroke-width="2"/>
        <path id="XMLID_383_" d="M45.943,37.321a3.721,3.721,0,0,0-7.443,0l.338,4.483a1.914,1.914,0,0,0,.93,1.438l1.861,1.184h1.184l1.861-1.184A1.717,1.717,0,0,0,45.6,41.8Z" transform="translate(-34.44 -33.6)" fill="none" stroke="#fff" stroke-miterlimit="10" stroke-width="2"/>
        <path id="XMLID_382_" d="M40.3,48.8l1.353,1.607h1.692L44.783,48.8" transform="translate(-34.718 -35.944)" fill="none" stroke="#fff" stroke-miterlimit="10" stroke-width="2"/>
      </g>
      <g id="XMLID_387_" transform="translate(12.771 15.055)">
        <path id="XMLID_392_" d="M27,42.4l2.114-.677V39.1" transform="translate(-27 -29.543)" fill="none" stroke="#fff" stroke-miterlimit="10" stroke-width="2"/>
        <path id="XMLID_391_" d="M36.43,42.483l-2.03-.761V39.1" transform="translate(-28.141 -29.543)" fill="none" stroke="#fff" stroke-miterlimit="10" stroke-width="2"/>
        <path id="XMLID_390_" d="M34.9,31.352a3.552,3.552,0,1,0-7.1,0l.338,4.313a1.45,1.45,0,0,0,.93,1.353l1.692,1.1h1.1l1.776-1.1a1.765,1.765,0,0,0,.93-1.353Z" transform="translate(-27.123 -27.8)" fill="none" stroke="#fff" stroke-miterlimit="10" stroke-width="2"/>
        <path id="XMLID_389_" d="M29.5,42.2l1.353,1.522h1.522L33.729,42.2" transform="translate(-27.386 -30.021)" fill="none" stroke="#fff" stroke-miterlimit="10" stroke-width="2"/>
      </g>
      <g id="XMLID_412_" transform="translate(4.398 5.075)">
        <path id="XMLID_393_" d="M42.219,29.871V27.164l-4.229-.592a11.355,11.355,0,0,0-1.015-2.537L39.6,20.567l-1.861-1.861-3.468,2.622a6.674,6.674,0,0,0-2.537-1.015L31.14,16H28.433l-.592,4.313A11.355,11.355,0,0,0,25.3,21.328l-3.468-2.622-1.945,1.861,2.537,3.468a6.674,6.674,0,0,0-1.015,2.537l-4.313.592v2.706" transform="translate(-17.1 -16)" fill="none" stroke="#fff" stroke-miterlimit="10" stroke-width="2"/>
      </g>
    </g>
  </g>
</svg>
