<svg xmlns="http://www.w3.org/2000/svg" width="20" height="20" viewBox="0 0 20 20">
  <path id="Path_98" data-name="Path 98" d="M-19.5,2.5A2.5,2.5,0,0,0-22,0a2.5,2.5,0,0,0-2.5,2.5A2.5,2.5,0,0,0-22,5a2.5,2.5,0,0,0,2.5-2.5ZM-22,3.75A1.25,1.25,0,0,1-23.25,2.5,1.25,1.25,0,0,1-22,1.25,1.25,1.25,0,0,1-20.75,2.5,1.25,1.25,0,0,1-22,3.75ZM-9.5,2.5A2.5,2.5,0,0,0-12,0a2.5,2.5,0,0,0-2.5,2.5A2.5,2.5,0,0,0-12,5,2.5,2.5,0,0,0-9.5,2.5ZM-12,3.75A1.25,1.25,0,0,1-13.25,2.5,1.25,1.25,0,0,1-12,1.25,1.25,1.25,0,0,1-10.75,2.5,1.25,1.25,0,0,1-12,3.75ZM-10.125,5h-3.75a3.116,3.116,0,0,0-2.534,1.31A3.688,3.688,0,0,0-17,6.25a3.688,3.688,0,0,0-.591.06A3.116,3.116,0,0,0-20.125,5h-3.75A3.125,3.125,0,0,0-27,8.125,1.875,1.875,0,0,0-25.125,10h4.375A3.75,3.75,0,0,0-17,13.75,3.75,3.75,0,0,0-13.25,10h4.375A1.875,1.875,0,0,0-7,8.125,3.125,3.125,0,0,0-10.125,5ZM-14.5,10A2.5,2.5,0,0,1-17,12.5,2.5,2.5,0,0,1-19.5,10,2.5,2.5,0,0,1-17,7.5,2.5,2.5,0,0,1-14.5,10ZM-25.125,8.75a.625.625,0,0,1-.625-.625A1.875,1.875,0,0,1-23.875,6.25h3.75a1.864,1.864,0,0,1,1.275.508A3.75,3.75,0,0,0-20.52,8.75Zm16.25,0h-4.6a3.75,3.75,0,0,0-1.67-1.992,1.864,1.864,0,0,1,1.275-.508h3.75A1.875,1.875,0,0,1-8.25,8.125.625.625,0,0,1-8.875,8.75ZM-24.5,18.125A1.875,1.875,0,0,0-22.625,20h11.25A1.875,1.875,0,0,0-9.5,18.125a4.375,4.375,0,0,0-4.375-4.375h-6.25A4.375,4.375,0,0,0-24.5,18.125ZM-13.875,15a3.125,3.125,0,0,1,3.125,3.125.625.625,0,0,1-.625.625h-11.25a.625.625,0,0,1-.625-.625A3.125,3.125,0,0,1-20.125,15Z" transform="translate(27)"/>
</svg>
