<svg xmlns="http://www.w3.org/2000/svg" width="20.385" height="18" viewBox="0 0 20.385 18">
  <g id="Group_894" data-name="Group 894" transform="translate(-1 -2.414)">
    <path id="Path_215" data-name="Path 215" d="M1,19.543c.071-.1.046-.225.115-.321.2-.278.344-.59.526-.88.22-.352.413-.72.624-1.078.228-.388.465-.771.7-1.157.119-.2.23-.4.348-.6.128-.217.276-.424.386-.649.087-.178.2-.34.29-.515.106-.205.238-.4.358-.595s.247-.409.368-.615c.132-.226.26-.454.392-.68.1-.164.2-.326.293-.49a.784.784,0,0,1,.621-.4c.285-.033.57-.014.855-.02.031,0,.062-.005.1-.008-.179-.457-.385-.895-.527-1.358-.08-.263-.139-.531-.213-.8-.067-.24-.073-.488-.127-.727a2.887,2.887,0,0,1-.063-.674c0-.178-.01-.355-.006-.534a5.713,5.713,0,0,1,.083-.782,4.468,4.468,0,0,1,.144-.6A4.771,4.771,0,0,1,6.55,5.33,5.123,5.123,0,0,1,6.9,4.711a4.87,4.87,0,0,1,.308-.4,3.884,3.884,0,0,1,.417-.458,6.95,6.95,0,0,1,.772-.6,5.033,5.033,0,0,1,.822-.432,5.159,5.159,0,0,1,.761-.239c.231-.054.463-.1.695-.14a5.742,5.742,0,0,1,.683-.022,4.145,4.145,0,0,1,1.068.13,3.685,3.685,0,0,1,.682.2,5.115,5.115,0,0,1,1.135.608,5.5,5.5,0,0,1,.828.714,5.661,5.661,0,0,1,.516.653,6.445,6.445,0,0,1,.361.622,4.915,4.915,0,0,1,.228.557,5.638,5.638,0,0,1,.177.7,3.683,3.683,0,0,1,.088.842.2.2,0,0,0,.028.141c.017.02.027.049.014.068-.075.1-.038.222-.04.333a3.591,3.591,0,0,1-.055.716c-.053.241-.057.492-.126.726-.08.27-.143.545-.235.813-.059.171-.119.343-.178.514a4.529,4.529,0,0,1-.233.543,1.758,1.758,0,0,0-.089.232c.045.042.092.027.135.027.261,0,.523-.005.784,0a.721.721,0,0,1,.635.378c.2.34.416.671.606,1.017.127.23.268.451.4.681s.27.428.387.651.274.426.378.66a4.281,4.281,0,0,0,.247.415c.139.237.274.477.417.711.159.259.3.528.468.783.127.2.235.4.353.6.2.336.4.672.592,1.009.128.218.253.438.379.657.02.035.045.067.074.107.006.268.006.53,0,.807a1.329,1.329,0,0,1-.409.375q-9.7,0-19.425,0A.9.9,0,0,1,1.1,20c-.044-.091-.017-.2-.1-.275v-.185m17.106-2.651c-.088-.154-.173-.308-.263-.46-.159-.269-.322-.536-.48-.806-.087-.149-.165-.3-.253-.451-.194-.324-.4-.644-.589-.97-.175-.3-.344-.6-.509-.9a.265.265,0,0,0-.277-.158c-.285.013-.572.009-.857,0a.361.361,0,0,0-.371.186c-.206.319-.422.635-.656.938-.268.345-.543.684-.818,1.023-.16.2-.331.385-.507.568-.215.223-.454.425-.655.659a.939.939,0,0,1-.656.282c-.074.01-.115-.05-.182-.053a.547.547,0,0,1-.375-.183c-.309-.32-.622-.636-.92-.965-.23-.253-.442-.521-.659-.785-.148-.181-.3-.359-.433-.552-.222-.326-.475-.632-.676-.973a.291.291,0,0,0-.294-.146c-.277.014-.555.009-.833,0-.163,0-.324-.02-.364.2,0,0-.006.005-.008.009-.158.261-.326.516-.472.783-.13.238-.274.467-.407.7-.189.334-.388.663-.582.994-.128.219-.248.444-.385.658-.181.282-.339.578-.512.865s-.341.576-.512.864a3.31,3.31,0,0,0-.214.365c-.035.081-.137.133-.111.246H19.237c-.369-.662-.744-1.292-1.131-1.936M9.376,4.544c-.146.107-.293.212-.438.321a2.782,2.782,0,0,0-.651.711,4.874,4.874,0,0,0-.415.768,3.243,3.243,0,0,0-.24,1,5.5,5.5,0,0,0,.184,1.77c.1.4.24.786.378,1.173a2.008,2.008,0,0,0,.113.265c.133.251.245.513.381.764.081.149.163.3.247.445a9.1,9.1,0,0,0,.549.868c.114.155.219.316.333.471q.269.365.546.724c.11.144.231.279.344.421.142.179.312.335.465.5.076.084.1.089.171-.008a4.207,4.207,0,0,1,.372-.429c.224-.249.435-.507.639-.773.12-.156.234-.318.355-.473.213-.274.4-.569.589-.857.047-.07.089-.144.131-.217.088-.154.171-.312.263-.464a7.1,7.1,0,0,0,.411-.809c.081-.185.155-.373.236-.558a6.821,6.821,0,0,0,.27-.773,5.524,5.524,0,0,0,.172-.78,5.361,5.361,0,0,0,.079-.823,4.584,4.584,0,0,0-.082-.917,3.754,3.754,0,0,0-.289-.8,3.111,3.111,0,0,0-.373-.6,3.85,3.85,0,0,0-.58-.613,4.267,4.267,0,0,0-1.048-.619,4.615,4.615,0,0,0-1.1-.222,3.016,3.016,0,0,0-.7.06,1.534,1.534,0,0,0-.448.09A4.579,4.579,0,0,0,9.376,4.544Z"/>
    <path id="Path_216" data-name="Path 216" d="M311.082,103.981a1.942,1.942,0,0,1-.007.727,2.745,2.745,0,0,1-.3.913,2.857,2.857,0,0,1-.877.963,2.46,2.46,0,0,1-.975.409,3.581,3.581,0,0,1-.748.061,2.746,2.746,0,0,1-.877-.191,2.709,2.709,0,0,1-.478-.233,2.991,2.991,0,0,1-.548-.486,2.49,2.49,0,0,1-.678-1.572,2.151,2.151,0,0,1-.048-.283,3.461,3.461,0,0,1,.213-1.062,2.643,2.643,0,0,1,.849-1.115,2.824,2.824,0,0,1,.907-.467,1.946,1.946,0,0,1,.583-.1c.079,0,.139-.067.222-.05.263.055.534.059.795.14a3.353,3.353,0,0,1,.725.321,2.783,2.783,0,0,1,.5.414,2.5,2.5,0,0,1,.523.778,2.264,2.264,0,0,1,.164.544.681.681,0,0,1,.051.282m-2.651-.844a1.125,1.125,0,0,0-.766.214,1.154,1.154,0,0,0-.395.508,1.115,1.115,0,0,0,.1,1.062,1.225,1.225,0,0,0,.483.424.906.906,0,0,0,.75.089,1.34,1.34,0,0,0,.646-.444,1.112,1.112,0,0,0,.214-.918A1.148,1.148,0,0,0,308.431,103.137Z" transform="translate(-297.086 -96.656)"/>
  </g>
</svg>
